<svg xmlns="http://www.w3.org/2000/svg">

  <symbol viewBox="0 0 23 16" id="icon-vk">
    <path d="M.07 2c0-.63.42-.96 1.27-1.01L4.6 1c.22 0 .37.09.44.27.33.91.7 1.7 1.13 2.37.41.66.95 1.43 1.63 2.3a.3.3 0 0 0 .28.16c.1 0 .18-.04.24-.13l.07-.2.02-3.17c0-.21-.06-.36-.19-.43A1.9 1.9 0 0 0 7.53 2c-.26-.04-.4-.17-.4-.4 0-.05.02-.09.03-.11C7.46.7 8.34.3 9.8.3L11 .29c.56 0 1.02.12 1.38.35.37.23.55.6.55 1.1v4.15c.1.06.2.09.28.09.22 0 .41-.11.57-.33 1.6-1.88 2.48-3.13 2.6-3.77a1.29 1.29 0 0 1 .55-.57c.24-.13.44-.22.62-.27a.5.5 0 0 1 .2-.03h3.39l.21.01c.3 0 .52.12.68.35.06.07.1.15.12.24a1.57 1.57 0 0 1 .06.4v.13c-.1.5-.36 1.03-.78 1.6-.41.57-.94 1.18-1.59 1.84-.64.66-1.04 1.09-1.2 1.3-.13.14-.2.28-.2.4 0 .1.06.2.18.33l3.2 3.36c.17.2.26.41.26.64 0 .28-.13.52-.4.7-.26.18-.57.28-.94.3l-.37.03h-3.33a.8.8 0 0 0-.08 0 .8.8 0 0 1-.1.02c-.31 0-.61-.12-.89-.35a182 182 0 0 1-2.06-2.16 1.1 1.1 0 0 0-.3-.24 25.65 25.65 0 0 0-.44 1.63l-.07.31c-.14.43-.45.68-.92.77l-.3.02H9.74a5.92 5.92 0 0 1-3.62-1.4 14.5 14.5 0 0 1-3.25-3.59A32.9 32.9 0 0 1 .18 2.52C.11 2.36.07 2.2.07 2Zm13.15 4.73c-.3 0-.58-.07-.83-.21-.25-.14-.37-.33-.37-.58v-4.2c0-.25-.07-.42-.22-.52-.15-.1-.4-.16-.77-.16L9.8 1.1c-.63 0-1.1.09-1.43.27.65.26.97.67.97 1.24v3.22c-.03.3-.18.56-.44.76-.26.2-.55.3-.88.3-.43 0-.77-.17-1-.53a18.47 18.47 0 0 1-2.54-4.1l-.2-.47-2.9-.02c-.2 0-.3.01-.33.03-.02.02-.03.07-.03.16 0 .1.02.22.04.34l.46 1.03a23.46 23.46 0 0 0 4 6.25c1.44 1.53 2.85 2.29 4.23 2.29h2.2c.08 0 .15-.02.19-.07a.52.52 0 0 0 .1-.24l.05-.18.42-1.61c.11-.22.22-.37.3-.44.16-.14.35-.2.57-.2.35 0 .71.17 1.08.53l1.86 1.97c.11.16.24.24.37.24h3.6c.45 0 .67-.1.67-.28a.31.31 0 0 0-.07-.18l-3.17-3.3a1.17 1.17 0 0 1-.38-.83c0-.3.12-.57.35-.84.2-.25.56-.65 1.11-1.22a28.2 28.2 0 0 0 1.43-1.59c.41-.5.68-.94.81-1.34l.07-.24a.24.24 0 0 1-.02-.12l-.02-.14h-3.44c-.22.07-.4.18-.53.33l-.13.35c-.36.84-1.32 2.14-2.86 3.9-.31.24-.67.36-1.08.36Z"/>
  </symbol>

  <symbol viewBox="0 0 30 22" id="icon-vk-tablet">
    <path d="M.1 2.49c0-.86.54-1.32 1.65-1.38L6 1.13c.29 0 .48.13.57.38.44 1.26.93 2.34 1.47 3.26.54.9 1.25 1.96 2.13 3.15.07.15.2.23.37.23.13 0 .24-.06.31-.18l.09-.27.03-4.36c0-.3-.08-.5-.25-.6-.16-.1-.46-.17-.9-.23-.34-.05-.5-.23-.5-.55 0-.07 0-.12.02-.15C9.74.72 10.88.18 12.77.18l1.6-.03c.72 0 1.32.16 1.8.48.47.32.7.82.7 1.5v5.72a.7.7 0 0 0 .38.12c.28 0 .53-.15.74-.45 2.1-2.58 3.23-4.3 3.4-5.18l.05-.13c.14-.25.36-.47.66-.65.3-.19.57-.31.8-.38a.63.63 0 0 1 .26-.05h4.42l.29.03a1 1 0 0 1 .88.47c.08.1.13.21.16.33a2.26 2.26 0 0 1 .07.55v.18a5.9 5.9 0 0 1-1.01 2.2c-.55.78-1.24 1.62-2.07 2.53-.84.9-1.36 1.5-1.57 1.78-.17.2-.26.39-.26.56 0 .13.08.28.23.45l4.17 4.63c.22.27.34.56.34.88 0 .38-.17.7-.51.95-.35.25-.76.4-1.23.43l-.49.03h-4.45l-.11.02c-.42 0-.81-.16-1.18-.48l-2.68-2.96c-.1-.12-.23-.23-.4-.33l-.3 1.16-.27 1.08-.09.42c-.19.6-.58.94-1.2 1.06l-.4.03h-2.8c-1.57 0-3.15-.64-4.72-1.92a19.62 19.62 0 0 1-4.23-4.94A46.12 46.12 0 0 1 .23 3.22a1.8 1.8 0 0 1-.14-.73ZM17.24 9c-.4 0-.76-.1-1.09-.29-.32-.19-.48-.45-.48-.79V2.14c0-.34-.1-.58-.29-.72-.19-.14-.52-.21-1-.21l-1.62.05c-.82 0-1.44.12-1.86.37.84.36 1.26.93 1.26 1.71v4.43c-.04.42-.23.77-.57 1.04-.35.28-.73.42-1.15.42-.57 0-1-.24-1.3-.73a25.68 25.68 0 0 1-3.32-5.63l-.26-.66-3.8-.02c-.24 0-.38.01-.4.04-.04.02-.05.1-.05.2 0 .16.02.32.06.49l.6 1.4c1.6 3.64 3.33 6.51 5.2 8.6 1.88 2.1 3.72 3.15 5.53 3.15h2.85c.12 0 .2-.03.26-.09s.1-.17.14-.34l.06-.25.54-2.21c.15-.3.29-.5.4-.6.21-.2.46-.28.74-.28.46 0 .93.24 1.4.73l2.43 2.71c.15.22.31.33.48.33h4.72c.57 0 .85-.13.85-.38a.44.44 0 0 0-.08-.25l-4.14-4.55a1.65 1.65 0 0 1-.49-1.13c0-.4.15-.8.46-1.16.25-.33.73-.9 1.44-1.67.71-.78 1.34-1.51 1.87-2.19.53-.68.88-1.3 1.06-1.85l.08-.32a.35.35 0 0 1-.03-.17c0-.07 0-.14-.03-.19h-4.48c-.28.1-.51.25-.68.46l-.17.47C21.9 4.3 20.66 6.1 18.65 8.5c-.4.34-.87.5-1.4.5Z"/>
  </symbol>

  <symbol viewBox="0 0 16 16" id="icon-insta">
    <path d="M7.98.06c1.34 0 2.43.02 3.27.05a6 6 0 0 1 1.92.37 3.99 3.99 0 0 1 2.31 2.32 6 6 0 0 1 .38 1.92 91.88 91.88 0 0 1 0 6.53 6 6 0 0 1-.38 1.92 3.99 3.99 0 0 1-2.3 2.31 6 6 0 0 1-1.93.38 91.88 91.88 0 0 1-6.53 0 6 6 0 0 1-1.92-.38 3.99 3.99 0 0 1-2.32-2.3 6 6 0 0 1-.37-1.93 91.73 91.73 0 0 1 0-6.53A6 6 0 0 1 .48 2.8 3.99 3.99 0 0 1 2.8.48 6 6 0 0 1 4.72.11C5.56.08 6.65.06 7.98.06Zm0 1.03c-1.38 0-2.51.02-3.39.05-.56.02-1.08.12-1.56.3-.75.31-1.28.84-1.6 1.6-.17.47-.27 1-.29 1.55a98.83 98.83 0 0 0 0 6.79c.02.56.12 1.08.3 1.56.31.75.84 1.28 1.6 1.6.47.17 1 .27 1.55.29a98.66 98.66 0 0 0 6.79 0 5.01 5.01 0 0 0 1.56-.3 2.85 2.85 0 0 0 1.6-1.6c.17-.47.27-1 .29-1.55a98.66 98.66 0 0 0 0-6.79 5.01 5.01 0 0 0-.3-1.56 2.85 2.85 0 0 0-1.6-1.6c-.47-.17-1-.27-1.55-.29-.88-.03-2.01-.05-3.4-.05Zm0 10.07c.88 0 1.63-.31 2.25-.93.62-.62.93-1.37.93-2.25 0-.87-.31-1.62-.93-2.24a3.06 3.06 0 0 0-2.25-.93c-.87 0-1.62.31-2.24.93a3.06 3.06 0 0 0-.93 2.24c0 .88.31 1.63.93 2.25.62.62 1.37.93 2.24.93Zm0-7.24c1.13 0 2.09.4 2.88 1.19.8.8 1.19 1.75 1.19 2.87 0 1.13-.4 2.09-1.2 2.88-.78.8-1.74 1.19-2.87 1.19-1.12 0-2.08-.4-2.87-1.2a3.92 3.92 0 0 1-1.19-2.87c0-1.12.4-2.08 1.19-2.87.8-.8 1.75-1.19 2.87-1.19Zm5.2-.15a.95.95 0 0 1-.97.94.9.9 0 0 1-.67-.28.9.9 0 0 1-.27-.66.95.95 0 0 1 .93-.97c.26 0 .49.1.68.29.2.19.3.42.3.68Z"/>
  </symbol>

  <symbol viewBox="0 0 23 23" id="icon-insta-tablet">
    <path d="M11.48.09c1.91 0 3.48.02 4.7.07 1.03.04 1.95.22 2.75.54a5.73 5.73 0 0 1 3.33 3.32c.31.8.5 1.73.54 2.76.04 1.22.07 2.78.07 4.7 0 1.91-.03 3.48-.07 4.7a8.63 8.63 0 0 1-.54 2.75 5.73 5.73 0 0 1-3.33 3.33c-.8.31-1.72.5-2.76.54-1.21.04-2.78.07-4.7.07-1.9 0-3.47-.03-4.69-.07a8.63 8.63 0 0 1-2.76-.54A5.73 5.73 0 0 1 .7 18.93c-.32-.8-.5-1.72-.54-2.76-.05-1.21-.07-2.78-.07-4.7 0-1.9.02-3.47.07-4.69C.2 5.75.38 4.83.7 4.02A5.73 5.73 0 0 1 4.02.7C4.82.38 5.75.2 6.78.16 8 .1 9.56.09 11.48.09Zm0 1.48c-2 0-3.62.02-4.88.07-.8.03-1.55.17-2.24.43a4.1 4.1 0 0 0-2.3 2.29c-.25.69-.39 1.43-.42 2.24-.05 1.26-.07 2.89-.07 4.88 0 1.99.02 3.61.07 4.87.03.81.17 1.56.43 2.25a4.1 4.1 0 0 0 2.29 2.29c.69.25 1.43.4 2.24.43 1.26.04 2.89.06 4.88.06 1.99 0 3.61-.02 4.87-.06.81-.03 1.56-.18 2.25-.43a4.1 4.1 0 0 0 2.29-2.3c.25-.68.4-1.43.43-2.24.04-1.26.06-2.88.06-4.87 0-2-.02-3.62-.06-4.88a7.21 7.21 0 0 0-.43-2.24 4.1 4.1 0 0 0-2.3-2.3 7.21 7.21 0 0 0-2.24-.42c-1.26-.05-2.88-.07-4.87-.07Zm0 14.47a4.4 4.4 0 0 0 3.22-1.34 4.4 4.4 0 0 0 1.34-3.22 4.4 4.4 0 0 0-1.34-3.23 4.4 4.4 0 0 0-3.22-1.33 4.4 4.4 0 0 0-3.23 1.33 4.4 4.4 0 0 0-1.33 3.23 4.4 4.4 0 0 0 1.33 3.22 4.4 4.4 0 0 0 3.23 1.34Zm0-10.4c1.61 0 3 .57 4.13 1.7a5.63 5.63 0 0 1 1.7 4.14c0 1.61-.56 3-1.7 4.13a5.63 5.63 0 0 1-4.13 1.7c-1.62 0-3-.56-4.14-1.7a5.63 5.63 0 0 1-1.7-4.13c0-1.62.57-3 1.7-4.14a5.63 5.63 0 0 1 4.14-1.7Zm7.45-.23a1.36 1.36 0 0 1-1.4 1.35c-.36 0-.68-.13-.94-.4a1.3 1.3 0 0 1-.4-.95 1.36 1.36 0 0 1 1.35-1.39c.38 0 .7.14.98.42.28.27.41.6.41.97Z"/>
  </symbol>

  <symbol viewBox="0 0 22 22" id="icon-facebook" fill="none">
    <path stroke-linecap="round" d="M16.5 1.83h-2.75c-1.22 0-2.38.48-3.24 1.32a4.45 4.45 0 0 0-1.34 3.18v2.7H6.42v3.59h2.75v7.19h3.66v-7.2h2.75l.92-3.59h-3.67v-2.7c0-.23.1-.46.27-.63.17-.17.4-.26.65-.26h2.75v-3.6Z"/>
  </symbol>

  <symbol viewBox="0 0 28 33" id="icon-facebook-tablet" fill="none">
    <path  stroke-linecap="round" d="M21 2.75h-3.5c-1.55 0-3.03.71-4.12 1.97a7.3 7.3 0 0 0-1.71 4.77v4.05h-3.5v5.39h3.5v10.79h4.66v-10.8h3.5L21 13.55h-4.67V9.49c0-.36.13-.7.35-.95.21-.25.51-.4.82-.4H21V2.75Z"/>
  </symbol>
</svg>
